<?xml version="1.0" encoding="utf-8"?>
<!-- Generator: Adobe Illustrator 18.0.0, SVG Export Plug-In . SVG Version: 6.00 Build 0)  -->
<!DOCTYPE svg PUBLIC "-//W3C//DTD SVG 1.1//EN" "http://www.w3.org/Graphics/SVG/1.1/DTD/svg11.dtd">
<svg version="1.1" id="Layer_1" xmlns="http://www.w3.org/2000/svg" xmlns:xlink="http://www.w3.org/1999/xlink" x="0px" y="0px"
	 viewBox="0 0 376.4 91.7" enable-background="new 0 0 376.4 91.7" xml:space="preserve">
<g>
	<path fill-rule="evenodd" clip-rule="evenodd" fill="#FFFFFF" d="M0,5c2.2,38.2,14.7,72,43.5,86.7C72.3,77,84.8,43.2,87,5
		C60.5-1.7,26.5-1.7,0,5z M40.2,58.1C23.6,46.6,22.3,36.5,25.8,27.2C33.5,30.7,41.8,36.9,40.2,58.1z M43.1,68.1
		c1.2-14.8,7.1-19.3,14.2-20.4C57.9,53.9,57,61.5,43.1,68.1z M44.1,48.1c-1.4-22.8,6.8-31,17.4-34.4C63.8,23,64.1,34.8,44.1,48.1z"
		/>
	<g>
		<g>
			<path fill="#FFFFFF" d="M93.1,71.9l22.1-52h3.1l22.1,52h-4l-7.3-17.1h-24.8l-7.3,17.1H93.1z M116.8,24.4l-11.6,27.3h22.9
				L116.8,24.4z"/>
			<path fill="#FFFFFF" d="M142.6,19.8l19.9,47.3l19.8-47.3h4l-22.1,52h-3.4l-22.1-52H142.6z"/>
			<path fill="#FFFFFF" d="M184.5,71.9l22.1-52h3.1l22.1,52h-4l-7.3-17.1h-24.8l-7.3,17.1H184.5z M208.2,24.4l-11.6,27.3h22.9
				L208.2,24.4z"/>
			<path fill="#FFFFFF" d="M243.7,26.9v45H240v-52h2.9l36.5,45.8V19.9h3.7v51.9h-3.4L243.7,26.9z"/>
			<path fill="#FFFFFF" d="M333.3,23.2h-19.1v48.7h-3.7V23.2h-19.1v-3.4h41.8V23.2z"/>
			<path fill="#FFFFFF" d="M376.4,68.5v3.4h-34.7v-52h34v3.4h-30.3v20.4h26.5v3.2h-26.5v21.6H376.4z"/>
		</g>
	</g>
</g>
</svg>
