<?xml version="1.0" encoding="utf-8"?>
<!-- Generator: Adobe Illustrator 18.0.0, SVG Export Plug-In . SVG Version: 6.00 Build 0)  -->
<!DOCTYPE svg PUBLIC "-//W3C//DTD SVG 1.1//EN" "http://www.w3.org/Graphics/SVG/1.1/DTD/svg11.dtd">
<svg version="1.1" id="Layer_1" xmlns="http://www.w3.org/2000/svg" xmlns:xlink="http://www.w3.org/1999/xlink" x="0px" y="0px"
	 viewBox="0 0 113.9 120.1" enable-background="new 0 0 113.9 120.1" xml:space="preserve">
<path fill-rule="evenodd" clip-rule="evenodd" fill="#FFFFFF" d="M0,6.5c2.9,50.1,19.3,94.3,57,113.6c37.7-19.3,54.1-63.5,57-113.6
	C79.2-2.2,34.8-2.2,0,6.5z M52.6,76c-21.7-15-23.3-28.2-18.9-40.3C43.9,40.2,54.8,48.3,52.6,76z M56.4,89.2C58,69.9,65.7,64,75,62.5
	C75.8,70.6,74.7,80.6,56.4,89.2z M57.7,63c-1.8-29.9,8.9-40.6,22.8-45.1C83.6,30.2,83.9,45.6,57.7,63z"/>
</svg>
