<?xml version="1.0" encoding="utf-8"?>
<!-- Generator: Adobe Illustrator 18.0.0, SVG Export Plug-In . SVG Version: 6.00 Build 0)  -->
<!DOCTYPE svg PUBLIC "-//W3C//DTD SVG 1.1//EN" "http://www.w3.org/Graphics/SVG/1.1/DTD/svg11.dtd">
<svg version="1.1" id="Layer_1" xmlns="http://www.w3.org/2000/svg" xmlns:xlink="http://www.w3.org/1999/xlink" x="0px" y="0px"
	 viewBox="0 0 387.7 96.1" enable-background="new 0 0 387.7 96.1" xml:space="preserve">
<g>
	<path fill-rule="evenodd" clip-rule="evenodd" fill="#FFFFFF" d="M2.4,6.5c2.2,38.8,15,73.1,44.2,88c29.2-14.9,41.9-49.2,44.2-88
		C63.7-0.2,29.3-0.2,2.4,6.5z M43.1,60.4C26.3,48.8,25,38.6,28.5,29.2C36.4,32.6,44.8,38.9,43.1,60.4z M46.1,70.7
		c1.2-15,7.2-19.6,14.4-20.7C61.2,56.2,60.2,63.9,46.1,70.7z M47.1,50.3C45.7,27.1,54,18.8,64.8,15.4C67.2,24.9,67.4,36.9,47.1,50.3
		z"/>
	<g>
		<g>
			<path fill="#FFFFFF" d="M96.9,64.4l22.5-52.8h3.1l22.5,52.8h-4.1L133.5,47h-25.2l-7.4,17.4H96.9z M120.9,16.2l-11.8,27.7h23.3
				L120.9,16.2z"/>
			<path fill="#FFFFFF" d="M147.1,11.6l20.2,48l20.1-48h4L169,64.4h-3.4l-22.4-52.8H147.1z"/>
			<path fill="#FFFFFF" d="M189.6,64.4l22.5-52.8h3.1l22.5,52.8h-4.1L226.2,47H201l-7.4,17.4H189.6z M213.7,16.2l-11.8,27.7h23.3
				L213.7,16.2z"/>
			<path fill="#FFFFFF" d="M249.7,18.7v45.7h-3.8V11.6h2.9l37,46.5V11.7h3.8v52.7h-3.5L249.7,18.7z"/>
			<path fill="#FFFFFF" d="M340.7,15h-19.3v49.4h-3.8V15h-19.3v-3.4h42.5V15z"/>
			<path fill="#FFFFFF" d="M384.4,61v3.4h-35.2V11.6h34.5V15H353v20.7h26.8V39H353V61H384.4z"/>
		</g>
		<g>
			<path fill="#FFFFFF" d="M105.8,89.6v1.1H97V77.7h8.6v1.1h-7.4v4.7h6.4v1.1h-6.4v5H105.8z"/>
			<path fill="#FFFFFF" d="M118.7,80.2c-0.4-0.4-0.9-0.8-1.5-1c-0.6-0.3-1.3-0.4-2.1-0.4c-1.2,0-2,0.2-2.5,0.7
				c-0.5,0.4-0.8,1-0.8,1.8c0,0.4,0.1,0.7,0.2,1c0.1,0.3,0.4,0.5,0.7,0.7c0.3,0.2,0.7,0.3,1.1,0.5c0.5,0.1,1,0.3,1.6,0.4
				c0.7,0.1,1.3,0.3,1.9,0.5c0.6,0.2,1,0.4,1.4,0.7c0.4,0.3,0.7,0.6,0.9,1c0.2,0.4,0.3,0.9,0.3,1.5c0,0.6-0.1,1.1-0.4,1.6
				c-0.2,0.4-0.6,0.8-1,1.1c-0.4,0.3-0.9,0.5-1.5,0.7c-0.6,0.1-1.2,0.2-1.9,0.2c-2.1,0-3.8-0.6-5.3-1.9l0.6-1.1
				c0.5,0.5,1.1,0.9,1.9,1.3c0.8,0.3,1.7,0.5,2.7,0.5c1,0,1.9-0.2,2.5-0.6c0.6-0.4,0.9-0.9,0.9-1.7c0-0.4-0.1-0.7-0.2-1
				c-0.2-0.3-0.4-0.5-0.7-0.7c-0.3-0.2-0.7-0.4-1.2-0.5c-0.5-0.1-1.1-0.3-1.7-0.4c-0.7-0.2-1.3-0.3-1.8-0.5
				c-0.5-0.2-0.9-0.4-1.3-0.6c-0.4-0.3-0.6-0.6-0.8-0.9c-0.2-0.4-0.3-0.8-0.3-1.3c0-0.6,0.1-1.1,0.3-1.6c0.2-0.5,0.5-0.9,1-1.2
				c0.4-0.3,0.9-0.6,1.5-0.7c0.6-0.2,1.2-0.2,1.9-0.2c0.9,0,1.6,0.1,2.3,0.4c0.7,0.3,1.3,0.6,1.9,1.1L118.7,80.2z"/>
			<path fill="#FFFFFF" d="M134.4,78.8h-4.7v11.9h-1.3V78.8h-4.7v-1.1h10.6V78.8z"/>
			<path fill="#FFFFFF" d="M144.6,89.7c0.8,0,1.5-0.2,2.1-0.5c0.5-0.3,1-0.7,1.3-1.2c0.3-0.5,0.6-1.1,0.7-1.7c0.1-0.7,0.2-1.3,0.2-2
				v-6.6h1.3v6.6c0,0.9-0.1,1.7-0.3,2.5c-0.2,0.8-0.5,1.5-0.9,2.1c-0.4,0.6-1,1.1-1.7,1.4c-0.7,0.4-1.6,0.5-2.6,0.5
				c-1,0-1.9-0.2-2.6-0.6c-0.7-0.4-1.3-0.9-1.7-1.5c-0.4-0.6-0.7-1.3-0.9-2.1c-0.2-0.8-0.3-1.6-0.3-2.4v-6.6h1.3v6.6
				c0,0.7,0.1,1.4,0.2,2c0.1,0.7,0.4,1.2,0.7,1.7c0.3,0.5,0.8,0.9,1.3,1.2C143.1,89.6,143.8,89.7,144.6,89.7z M144.8,75.9l-0.8-0.3
				l1.1-1.7h1.3L144.8,75.9z"/>
			<path fill="#FFFFFF" d="M156.2,90.8V77.7h4.4c1,0,2,0.2,2.7,0.5c0.8,0.3,1.4,0.8,2,1.4c0.5,0.6,0.9,1.3,1.2,2.1
				c0.3,0.8,0.4,1.6,0.4,2.5c0,1-0.1,1.9-0.4,2.7c-0.3,0.8-0.7,1.5-1.3,2.1c-0.5,0.6-1.2,1-2,1.3c-0.8,0.3-1.6,0.5-2.6,0.5H156.2z
				 M165.6,84.2c0-0.8-0.1-1.5-0.3-2.2c-0.2-0.7-0.5-1.2-1-1.7c-0.4-0.5-0.9-0.9-1.6-1.1c-0.6-0.3-1.3-0.4-2.1-0.4h-3.2v10.8h3.2
				c0.8,0,1.5-0.1,2.1-0.4c0.6-0.3,1.1-0.7,1.6-1.1c0.4-0.5,0.7-1.1,0.9-1.7C165.5,85.7,165.6,85,165.6,84.2z"/>
			<path fill="#FFFFFF" d="M172.4,90.8V77.7h1.3v13.1H172.4z"/>
			<path fill="#FFFFFF" d="M185.2,90.9c-0.9,0-1.7-0.2-2.5-0.6c-0.8-0.4-1.4-0.9-1.9-1.5c-0.5-0.6-1-1.3-1.3-2.1
				c-0.3-0.8-0.4-1.6-0.4-2.5c0-0.9,0.2-1.7,0.5-2.5c0.3-0.8,0.7-1.5,1.3-2.1c0.6-0.6,1.2-1.1,2-1.5s1.6-0.5,2.4-0.5
				c0.9,0,1.7,0.2,2.5,0.6c0.8,0.4,1.4,0.9,1.9,1.5c0.5,0.6,0.9,1.3,1.2,2.1c0.3,0.8,0.4,1.6,0.4,2.4c0,0.9-0.2,1.7-0.5,2.5
				c-0.3,0.8-0.7,1.5-1.3,2.1c-0.5,0.6-1.2,1.1-1.9,1.5C186.9,90.7,186.1,90.9,185.2,90.9z M180.4,84.2c0,0.7,0.1,1.4,0.4,2.1
				c0.2,0.7,0.6,1.2,1,1.8c0.4,0.5,0.9,0.9,1.5,1.2c0.6,0.3,1.2,0.5,2,0.5c0.7,0,1.4-0.2,2-0.5c0.6-0.3,1.1-0.7,1.5-1.3
				c0.4-0.5,0.7-1.1,1-1.8c0.2-0.7,0.3-1.3,0.3-2c0-0.7-0.1-1.4-0.4-2.1c-0.2-0.7-0.6-1.2-1-1.7s-0.9-0.9-1.5-1.2
				c-0.6-0.3-1.2-0.5-2-0.5c-0.7,0-1.4,0.2-2,0.5s-1.1,0.7-1.5,1.2c-0.4,0.5-0.7,1.1-1,1.8C180.5,82.9,180.4,83.6,180.4,84.2z"/>
			<path fill="#FFFFFF" d="M204.5,90.8V77.7h4.4c1,0,2,0.2,2.7,0.5c0.8,0.3,1.4,0.8,2,1.4c0.5,0.6,0.9,1.3,1.2,2.1
				c0.3,0.8,0.4,1.6,0.4,2.5c0,1-0.1,1.9-0.4,2.7c-0.3,0.8-0.7,1.5-1.3,2.1c-0.5,0.6-1.2,1-2,1.3c-0.8,0.3-1.6,0.5-2.6,0.5H204.5z
				 M213.8,84.2c0-0.8-0.1-1.5-0.3-2.2c-0.2-0.7-0.5-1.2-1-1.7c-0.4-0.5-0.9-0.9-1.6-1.1c-0.6-0.3-1.3-0.4-2.1-0.4h-3.2v10.8h3.2
				c0.8,0,1.5-0.1,2.1-0.4c0.6-0.3,1.1-0.7,1.6-1.1c0.4-0.5,0.7-1.1,0.9-1.7C213.7,85.7,213.8,85,213.8,84.2z"/>
			<path fill="#FFFFFF" d="M229.4,89.6v1.1h-8.8V77.7h8.6v1.1h-7.4v4.7h6.4v1.1h-6.4v5H229.4z"/>
			<path fill="#FFFFFF" d="M251.3,78.8h-4.7v11.9h-1.3V78.8h-4.7v-1.1h10.6V78.8z"/>
			<path fill="#FFFFFF" d="M265.1,89.6v1.1h-8.8V77.7h8.6v1.1h-7.4v4.7h6.4v1.1h-6.4v5H265.1z"/>
			<path fill="#FFFFFF" d="M269.7,84.2c0-0.8,0.1-1.6,0.4-2.3c0.3-0.8,0.7-1.5,1.2-2.1c0.5-0.6,1.2-1.1,2-1.5
				c0.8-0.4,1.7-0.6,2.6-0.6c1.2,0,2.2,0.3,3,0.8c0.8,0.5,1.4,1.2,1.8,2.1l-1,0.6c-0.2-0.4-0.5-0.8-0.8-1.1c-0.3-0.3-0.6-0.5-1-0.7
				c-0.3-0.2-0.7-0.3-1.1-0.4c-0.4-0.1-0.7-0.1-1.1-0.1c-0.8,0-1.5,0.2-2.1,0.5c-0.6,0.3-1.1,0.7-1.5,1.3c-0.4,0.5-0.7,1.1-0.9,1.7
				c-0.2,0.6-0.3,1.3-0.3,2c0,0.7,0.1,1.4,0.4,2.1c0.3,0.7,0.6,1.3,1,1.8c0.4,0.5,1,0.9,1.5,1.2c0.6,0.3,1.2,0.5,1.9,0.5
				c0.4,0,0.7,0,1.1-0.1s0.8-0.2,1.1-0.4c0.4-0.2,0.7-0.5,1-0.8c0.3-0.3,0.6-0.7,0.8-1.1l1.1,0.6c-0.2,0.5-0.5,0.9-0.9,1.3
				c-0.4,0.4-0.8,0.7-1.3,0.9c-0.5,0.3-1,0.5-1.5,0.6c-0.5,0.1-1,0.2-1.5,0.2c-0.9,0-1.7-0.2-2.5-0.6c-0.7-0.4-1.4-0.9-1.9-1.5
				c-0.5-0.6-1-1.4-1.3-2.2C269.9,85.8,269.7,85,269.7,84.2z"/>
			<path fill="#FFFFFF" d="M287.5,80.1v10.7h-1.3V77.7h1l8.7,10.9V77.7h1.3v13.1H296L287.5,80.1z"/>
			<path fill="#FFFFFF" d="M308.7,90.9c-0.9,0-1.7-0.2-2.5-0.6c-0.8-0.4-1.4-0.9-1.9-1.5c-0.5-0.6-1-1.3-1.3-2.1
				c-0.3-0.8-0.4-1.6-0.4-2.5c0-0.9,0.2-1.7,0.5-2.5c0.3-0.8,0.7-1.5,1.3-2.1c0.6-0.6,1.2-1.1,2-1.5s1.6-0.5,2.4-0.5
				c0.9,0,1.7,0.2,2.5,0.6c0.8,0.4,1.4,0.9,1.9,1.5c0.5,0.6,0.9,1.3,1.2,2.1c0.3,0.8,0.4,1.6,0.4,2.4c0,0.9-0.2,1.7-0.5,2.5
				c-0.3,0.8-0.7,1.5-1.3,2.1c-0.5,0.6-1.2,1.1-1.9,1.5S309.6,90.9,308.7,90.9z M303.8,84.2c0,0.7,0.1,1.4,0.3,2.1
				c0.2,0.7,0.6,1.2,1,1.8c0.4,0.5,0.9,0.9,1.5,1.2c0.6,0.3,1.2,0.5,2,0.5c0.7,0,1.4-0.2,2-0.5c0.6-0.3,1.1-0.7,1.5-1.3
				s0.7-1.1,1-1.8c0.2-0.7,0.3-1.3,0.3-2c0-0.7-0.1-1.4-0.4-2.1c-0.2-0.7-0.6-1.2-1-1.7c-0.4-0.5-0.9-0.9-1.5-1.2
				c-0.6-0.3-1.2-0.5-2-0.5c-0.7,0-1.4,0.2-2,0.5s-1.1,0.7-1.5,1.2c-0.4,0.5-0.7,1.1-1,1.8C304,82.9,303.8,83.6,303.8,84.2z"/>
			<path fill="#FFFFFF" d="M320.3,90.8V77.7h1.3v11.9h7.6v1.1H320.3z"/>
			<path fill="#FFFFFF" d="M338.6,90.9c-0.9,0-1.7-0.2-2.5-0.6c-0.8-0.4-1.4-0.9-1.9-1.5c-0.5-0.6-1-1.3-1.3-2.1
				c-0.3-0.8-0.4-1.6-0.4-2.5c0-0.9,0.2-1.7,0.5-2.5c0.3-0.8,0.7-1.5,1.3-2.1c0.6-0.6,1.2-1.1,2-1.5s1.6-0.5,2.4-0.5
				c0.9,0,1.7,0.2,2.5,0.6c0.8,0.4,1.4,0.9,1.9,1.5c0.5,0.6,0.9,1.3,1.2,2.1c0.3,0.8,0.4,1.6,0.4,2.4c0,0.9-0.2,1.7-0.5,2.5
				c-0.3,0.8-0.7,1.5-1.3,2.1c-0.5,0.6-1.2,1.1-1.9,1.5C340.2,90.7,339.4,90.9,338.6,90.9z M333.7,84.2c0,0.7,0.1,1.4,0.3,2.1
				c0.2,0.7,0.6,1.2,1,1.8c0.4,0.5,0.9,0.9,1.5,1.2c0.6,0.3,1.2,0.5,2,0.5c0.7,0,1.4-0.2,2-0.5c0.6-0.3,1.1-0.7,1.5-1.3
				c0.4-0.5,0.7-1.1,1-1.8c0.2-0.7,0.3-1.3,0.3-2c0-0.7-0.1-1.4-0.4-2.1c-0.2-0.7-0.6-1.2-1-1.7c-0.4-0.5-0.9-0.9-1.5-1.2
				c-0.6-0.3-1.2-0.5-2-0.5c-0.7,0-1.4,0.2-2,0.5s-1.1,0.7-1.5,1.2c-0.4,0.5-0.7,1.1-1,1.8C333.8,82.9,333.7,83.6,333.7,84.2z"/>
			<path fill="#FFFFFF" d="M359.6,88.9c-1.2,1.3-2.6,2-4.2,2c-0.9,0-1.7-0.2-2.4-0.6c-0.7-0.4-1.4-0.9-1.9-1.5
				c-0.5-0.6-1-1.3-1.3-2.1c-0.3-0.8-0.5-1.6-0.5-2.4c0-0.9,0.2-1.7,0.5-2.5c0.3-0.8,0.7-1.5,1.3-2.1c0.5-0.6,1.2-1.1,1.9-1.5
				s1.6-0.5,2.4-0.5c0.6,0,1.2,0.1,1.7,0.2c0.5,0.1,1,0.3,1.4,0.6c0.4,0.3,0.8,0.6,1.1,0.9c0.3,0.3,0.6,0.7,0.8,1.2l-1,0.7
				c-0.4-0.8-1-1.4-1.7-1.8c-0.7-0.4-1.5-0.6-2.3-0.6c-0.7,0-1.4,0.2-2,0.5c-0.6,0.3-1.1,0.7-1.5,1.2c-0.4,0.5-0.7,1.1-0.9,1.8
				c-0.2,0.7-0.3,1.3-0.3,2c0,0.7,0.1,1.4,0.4,2.1c0.3,0.7,0.6,1.2,1,1.7c0.4,0.5,1,0.9,1.6,1.2c0.6,0.3,1.2,0.4,1.9,0.4
				c0.7,0,1.5-0.2,2.1-0.5c0.7-0.4,1.3-0.9,2-1.6v-2.2h-2.9v-1h4v6.4h-1.1V88.9z"/>
			<path fill="#FFFFFF" d="M366.4,90.8V77.7h1.3v13.1H366.4z"/>
			<path fill="#FFFFFF" d="M372.5,90.8l5.5-13.1h1.1l5.5,13.1h-1.4l-1.7-4.1h-5.9l-1.7,4.1H372.5z M378.5,79.2l-2.7,6.5h5.3
				L378.5,79.2z"/>
		</g>
	</g>
</g>
</svg>
